# xmcd
#
# Track frame offsets:
#	150
#	16345
#	33142
#	47852
#	72727
#	100019
#	121226
#	142286
#	159894
#	172909
#	186559
#	197649
#	216497
#	231952
#	251730
#	269435
#	285277
#	299192
#
# Disc length: 4332 seconds
#
# Revision: 0
# Processed by: cddbd v1.5.2PL0 Copyright (c) Steve Scherf et al.
# Submitted via: audiograbber 1.83.01
#
DISCID=1b10ea12
DTITLE=karaoke - R&B 4
DYEAR=1900
DGENRE=karaoke
TTITLE0=Patti Labelle - Lady Marmalade 
TTITLE1=Hot Chocolate - You Sexy Thing 
TTITLE2=Stevie Wonder - YesterMe YesterYou, Yesterday
TTITLE3=Luther Vandross - Here And Now 
TTITLE4=Whitney Houston - Miracle 
TTITLE5=Aaliyah - Hot Like Fire
TTITLE6=Luther Vandross - Dont Want To Be A Fool
TTITLE7=Otis Redding - Dreams To Remember
TTITLE8=Jerry Butler and The Impressions - Make It Easy On Yourself 
TTITLE9=John Lee Hooker - Im In The Mood 
TTITLE10=Natalie Cole - Inseparable
TTITLE11=Commodores - Brick House
TTITLE12=Otis Redding - Ive Been Loving You So Long 
TTITLE13=Natalie Cole - Ive Got Love On My Mind
TTITLE14=Manhattans - Kiss And Say Goodbye
TTITLE15=Al Jarreau - Were In This Love Together
TTITLE16=Dee Clark - Raindrops
TTITLE17=Boyz II Men - On Bended Knee
EXTD=
EXTT0=
EXTT1=
EXTT2=
EXTT3=
EXTT4=
EXTT5=
EXTT6=
EXTT7=
EXTT8=
EXTT9=
EXTT10=
EXTT11=
EXTT12=
EXTT13=
EXTT14=
EXTT15=
EXTT16=
EXTT17=
PLAYORDER=
